HIERARCHY
ROOT newVegas:Hips
{
	OFFSET 0.000000 96.479958 0.000000
	CHANNELS 6 Xposition Yposition Zposition Xrotation Yrotation Zrotation
	JOINT newVegas:Pelvis
	{
		OFFSET 0.000000 0.000000 0.000000
		CHANNELS 3 Xrotation Yrotation Zrotation
		JOINT newVegas:LeftUpLeg
		{
			OFFSET 18.735201 -5.666702 -4.541200
			CHANNELS 3 Xrotation Yrotation Zrotation
			JOINT newVegas:LeftLeg
			{
				OFFSET -0.021200 -31.938179 0.493100
				CHANNELS 3 Xrotation Yrotation Zrotation
				JOINT newVegas:LeftFoot
				{
					OFFSET 0.021200 -31.938179 -4.336299
					CHANNELS 3 Xrotation Yrotation Zrotation
					JOINT newVegas:LeftToeBase
					{
						OFFSET 0.943001 -26.722000 15.023500
						CHANNELS 3 Xrotation Yrotation Zrotation
						End Site
						{
							OFFSET 0.000000 30.670183 0.000000
						}
					}
				}
				JOINT newVegas:Left_PantLeg
				{
					OFFSET 0.663870 -9.044666 -1.108900
					CHANNELS 3 Xrotation Yrotation Zrotation
					End Site
					{
						OFFSET 1.415995 20.635357 0.000000
					}
				}
			}
		}
		JOINT newVegas:RightUpLeg
		{
			OFFSET -18.735201 -5.666702 -4.541200
			CHANNELS 3 Xrotation Yrotation Zrotation
			JOINT newVegas:RightLeg
			{
				OFFSET 0.018946 -31.938133 0.493100
				CHANNELS 3 Xrotation Yrotation Zrotation
				JOINT newVegas:RightFoot
				{
					OFFSET -0.018946 -31.938126 -4.336299
					CHANNELS 3 Xrotation Yrotation Zrotation
					JOINT newVegas:RightToeBase
					{
						OFFSET -0.943001 -26.722004 15.023500
						CHANNELS 3 Xrotation Yrotation Zrotation
						End Site
						{
							OFFSET 0.000000 30.670187 0.000000
						}
					}
				}
				JOINT newVegas:Right_PantLeg
				{
					OFFSET -0.661674 -9.044716 -1.108900
					CHANNELS 3 Xrotation Yrotation Zrotation
					End Site
					{
						OFFSET -1.415958 20.635269 0.000000
					}
				}
			}
		}
	}
	JOINT newVegas:Spine
	{
		OFFSET 0.000000 10.199997 -0.299500
		CHANNELS 3 Xrotation Yrotation Zrotation
		JOINT newVegas:Spine1
		{
			OFFSET 0.000000 11.900002 -1.516600
			CHANNELS 3 Xrotation Yrotation Zrotation
			JOINT newVegas:Spine2
			{
				OFFSET 0.000000 13.600006 -2.842500
				CHANNELS 3 Xrotation Yrotation Zrotation
				JOINT newVegas:Neck
				{
					OFFSET 0.000000 9.624100 -2.890100
					CHANNELS 3 Xrotation Yrotation Zrotation
					JOINT newVegas:Head
					{
						OFFSET 0.000000 14.068802 -1.351900
						CHANNELS 3 Xrotation Yrotation Zrotation
						JOINT newVegas:Hair_Back
						{
							OFFSET 0.000000 3.231903 -17.524799
							CHANNELS 3 Xrotation Yrotation Zrotation
							End Site
							{
								OFFSET 0.000000 19.849884 0.000000
							}
						}
						JOINT newVegas:Hair_Front
						{
							OFFSET 0.000000 31.260406 4.573800
							CHANNELS 3 Xrotation Yrotation Zrotation
							JOINT newVegas:Hair_Front1
							{
								OFFSET 0.000000 2.284103 11.993300
								CHANNELS 3 Xrotation Yrotation Zrotation
								JOINT newVegas:Hair_Front2
								{
									OFFSET 0.000000 2.284103 11.993300
									CHANNELS 3 Xrotation Yrotation Zrotation
									End Site
									{
										OFFSET 0.000000 12.208862 0.000000
									}
								}
							}
						}
						JOINT newVegas:Jowel
						{
							OFFSET 0.000000 -7.458206 6.864100
							CHANNELS 3 Xrotation Yrotation Zrotation
							End Site
							{
								OFFSET 0.000000 19.849884 0.000000
							}
						}
					}
				}
				JOINT newVegas:LeftShoulder
				{
					OFFSET 15.263000 10.923401 -0.547700
					CHANNELS 3 Xrotation Yrotation Zrotation
					JOINT newVegas:LeftArm
					{
						OFFSET 25.438599 -2.830597 -13.032500
						CHANNELS 3 Xrotation Yrotation Zrotation
						JOINT newVegas:LeftForeArm
						{
							OFFSET 29.960503 0.000000 0.000000
							CHANNELS 3 Xrotation Yrotation Zrotation
							JOINT newVegas:LeftHand
							{
								OFFSET 27.849251 0.000000 0.000000
								CHANNELS 3 Xrotation Yrotation Zrotation
								JOINT newVegas:LeftHandThumb1
								{
									OFFSET 4.487587 -3.305161 6.305391
									CHANNELS 3 Xrotation Yrotation Zrotation
									JOINT newVegas:LeftHandThumb2
									{
										OFFSET 5.480453 -3.164139 3.164143
										CHANNELS 3 Xrotation Yrotation Zrotation
										JOINT newVegas:LeftHandThumb3
										{
											OFFSET 5.159721 -2.978973 2.978967
											CHANNELS 3 Xrotation Yrotation Zrotation
											End Site
											{
												OFFSET 2.494507 5.926697 1.738678
											}
										}
									}
								}
								JOINT newVegas:LeftHandIndex1
								{
									OFFSET 18.578728 -0.527832 5.208049
									CHANNELS 3 Xrotation Yrotation Zrotation
									JOINT newVegas:LeftHandIndex2
									{
										OFFSET 3.192009 0.000000 0.000000
										CHANNELS 3 Xrotation Yrotation Zrotation
										JOINT newVegas:LeftHandIndex3
										{
											OFFSET 3.835129 0.000000 0.000000
											CHANNELS 3 Xrotation Yrotation Zrotation
											End Site
											{
												OFFSET -0.034599 3.816971 0.371180
											}
										}
									}
								}
								JOINT newVegas:LeftHandMiddle1
								{
									OFFSET 18.476105 0.000000 0.000000
									CHANNELS 3 Xrotation Yrotation Zrotation
									JOINT newVegas:LeftHandMiddle2
									{
										OFFSET 3.324875 0.000000 0.000000
										CHANNELS 3 Xrotation Yrotation Zrotation
										JOINT newVegas:LeftHandMiddle3
										{
											OFFSET 4.596550 0.000000 0.000000
											CHANNELS 3 Xrotation Yrotation Zrotation
											End Site
											{
												OFFSET 0.057701 4.578827 0.399218
											}
										}
									}
								}
								JOINT newVegas:LeftHandRing1
								{
									OFFSET 17.732719 0.121887 -4.201567
									CHANNELS 3 Xrotation Yrotation Zrotation
									JOINT newVegas:LeftHandRing2
									{
										OFFSET 2.733170 0.000000 0.000000
										CHANNELS 3 Xrotation Yrotation Zrotation
										JOINT newVegas:LeftHandRing3
										{
											OFFSET 3.178268 0.000000 0.000000
											CHANNELS 3 Xrotation Yrotation Zrotation
											End Site
											{
												OFFSET 0.119102 3.170624 0.185394
											}
										}
									}
								}
								JOINT newVegas:LeftHandPinky1
								{
									OFFSET 15.989624 -0.606689 -7.535461
									CHANNELS 3 Xrotation Yrotation Zrotation
									JOINT newVegas:LeftHandPinky2
									{
										OFFSET 2.538986 0.000000 0.000000
										CHANNELS 3 Xrotation Yrotation Zrotation
										JOINT newVegas:LeftHandPinky3
										{
											OFFSET 2.593102 0.000000 0.000000
											CHANNELS 3 Xrotation Yrotation Zrotation
											End Site
											{
												OFFSET -0.150902 2.584198 0.152708
											}
										}
									}
								}
							}
							JOINT newVegas:Left_Sleeve
							{
								OFFSET 0.267448 -0.649796 0.577675
								CHANNELS 3 Xrotation Yrotation Zrotation
								End Site
								{
									OFFSET 0.000000 15.991241 0.000000
								}
							}
							JOINT newVegas:Left_CapeC
							{
								OFFSET 15.715958 -8.608795 -6.935905
								CHANNELS 3 Xrotation Yrotation Zrotation
								JOINT newVegas:Left_CapeC1
								{
									OFFSET 0.000000 -8.688499 0.000000
									CHANNELS 3 Xrotation Yrotation Zrotation
									End Site
									{
										OFFSET 0.000000 8.688499 0.000000
									}
								}
							}
						}
						JOINT newVegas:Left_CapeB
						{
							OFFSET 26.118385 -8.608795 -7.079235
							CHANNELS 3 Xrotation Yrotation Zrotation
							JOINT newVegas:Left_CapeB1
							{
								OFFSET 0.000000 -8.688499 0.000000
								CHANNELS 3 Xrotation Yrotation Zrotation
								End Site
								{
									OFFSET 0.000000 8.688499 0.000000
								}
							}
						}
						JOINT newVegas:Left_CapeA
						{
							OFFSET 5.115639 -8.608795 -10.395809
							CHANNELS 3 Xrotation Yrotation Zrotation
							JOINT newVegas:Left_CapeA1
							{
								OFFSET 0.000000 -8.688499 0.000000
								CHANNELS 3 Xrotation Yrotation Zrotation
								End Site
								{
									OFFSET 0.000000 8.688499 0.000000
								}
							}
						}
					}
				}
				JOINT newVegas:RightShoulder
				{
					OFFSET -15.263000 10.923401 -0.547700
					CHANNELS 3 Xrotation Yrotation Zrotation
					JOINT newVegas:RightArm
					{
						OFFSET -25.438599 -2.830597 -13.032500
						CHANNELS 3 Xrotation Yrotation Zrotation
						JOINT newVegas:RightForeArm
						{
							OFFSET -29.960503 0.000000 0.000000
							CHANNELS 3 Xrotation Yrotation Zrotation
							JOINT newVegas:RightHand
							{
								OFFSET -27.849251 0.000000 0.000000
								CHANNELS 3 Xrotation Yrotation Zrotation
								JOINT newVegas:RightHandThumb1
								{
									OFFSET -4.487587 -3.305161 6.305391
									CHANNELS 3 Xrotation Yrotation Zrotation
									JOINT newVegas:RightHandThumb2
									{
										OFFSET -5.480453 -3.164139 3.164143
										CHANNELS 3 Xrotation Yrotation Zrotation
										JOINT newVegas:RightHandThumb3
										{
											OFFSET -5.159721 -2.978973 2.978967
											CHANNELS 3 Xrotation Yrotation Zrotation
											End Site
											{
												OFFSET -2.494507 5.926697 1.738678
											}
										}
									}
								}
								JOINT newVegas:RightHandIndex1
								{
									OFFSET -18.578728 -0.527832 5.208049
									CHANNELS 3 Xrotation Yrotation Zrotation
									JOINT newVegas:RightHandIndex2
									{
										OFFSET -3.192009 0.000000 0.000000
										CHANNELS 3 Xrotation Yrotation Zrotation
										JOINT newVegas:RightHandIndex3
										{
											OFFSET -3.835129 0.000000 0.000000
											CHANNELS 3 Xrotation Yrotation Zrotation
											End Site
											{
												OFFSET 0.034599 3.816971 0.371180
											}
										}
									}
								}
								JOINT newVegas:RightHandMiddle1
								{
									OFFSET -18.476105 0.000000 0.000000
									CHANNELS 3 Xrotation Yrotation Zrotation
									JOINT newVegas:RightHandMiddle2
									{
										OFFSET -3.324875 0.000000 0.000000
										CHANNELS 3 Xrotation Yrotation Zrotation
										JOINT newVegas:RightHandMiddle3
										{
											OFFSET -4.596550 0.000000 0.000000
											CHANNELS 3 Xrotation Yrotation Zrotation
											End Site
											{
												OFFSET -0.057701 4.578827 0.399218
											}
										}
									}
								}
								JOINT newVegas:RightHandRing1
								{
									OFFSET -17.732719 0.121887 -4.201567
									CHANNELS 3 Xrotation Yrotation Zrotation
									JOINT newVegas:RightHandRing2
									{
										OFFSET -2.733170 0.000000 0.000000
										CHANNELS 3 Xrotation Yrotation Zrotation
										JOINT newVegas:RightHandRing3
										{
											OFFSET -3.178268 0.000000 0.000000
											CHANNELS 3 Xrotation Yrotation Zrotation
											End Site
											{
												OFFSET -0.119102 3.170624 0.185394
											}
										}
									}
								}
								JOINT newVegas:RightHandPinky1
								{
									OFFSET -15.989624 -0.606689 -7.535461
									CHANNELS 3 Xrotation Yrotation Zrotation
									JOINT newVegas:RightHandPinky2
									{
										OFFSET -2.538986 0.000000 0.000000
										CHANNELS 3 Xrotation Yrotation Zrotation
										JOINT newVegas:RightHandPinky3
										{
											OFFSET -2.593102 0.000000 0.000000
											CHANNELS 3 Xrotation Yrotation Zrotation
											End Site
											{
												OFFSET 0.150902 2.584198 0.152708
											}
										}
									}
								}
							}
							JOINT newVegas:Right_CapeC
							{
								OFFSET -15.715958 -8.608795 -6.935905
								CHANNELS 3 Xrotation Yrotation Zrotation
								JOINT newVegas:Right_CapeC1
								{
									OFFSET 0.000000 -8.688499 0.000000
									CHANNELS 3 Xrotation Yrotation Zrotation
									End Site
									{
										OFFSET 0.000000 8.688499 0.000000
									}
								}
							}
							JOINT newVegas:Right_Sleeve
							{
								OFFSET -0.267448 -0.649994 0.577675
								CHANNELS 3 Xrotation Yrotation Zrotation
								End Site
								{
									OFFSET 0.000000 15.991302 0.000000
								}
							}
						}
						JOINT newVegas:Right_CapeA
						{
							OFFSET -5.115540 -8.608795 -10.395824
							CHANNELS 3 Xrotation Yrotation Zrotation
							JOINT newVegas:Right_CapeA1
							{
								OFFSET 0.000000 -8.688499 0.000000
								CHANNELS 3 Xrotation Yrotation Zrotation
								End Site
								{
									OFFSET 0.000000 8.688499 0.000000
								}
							}
						}
						JOINT newVegas:Right_CapeB
						{
							OFFSET -26.118187 -8.608795 -7.079266
							CHANNELS 3 Xrotation Yrotation Zrotation
							JOINT newVegas:Right_CapeB1
							{
								OFFSET 0.000000 -8.688499 0.000000
								CHANNELS 3 Xrotation Yrotation Zrotation
								End Site
								{
									OFFSET 0.000000 8.688499 0.000000
								}
							}
						}
					}
				}
				JOINT newVegas:Left_Collar
				{
					OFFSET 18.625099 8.655502 8.828100
					CHANNELS 3 Xrotation Yrotation Zrotation
					JOINT newVegas:Left_Collar1
					{
						OFFSET 14.783401 10.540405 -1.259500
						CHANNELS 3 Xrotation Yrotation Zrotation
						End Site
						{
							OFFSET 0.000000 18.199875 0.000000
						}
					}
				}
				JOINT newVegas:Collar_Back
				{
					OFFSET 0.000000 15.630707 -20.132601
					CHANNELS 3 Xrotation Yrotation Zrotation
					End Site
					{
						OFFSET 0.000000 22.523010 0.000000
					}
				}
				JOINT newVegas:Left_Peck
				{
					OFFSET 17.239599 -5.132599 25.482599
					CHANNELS 3 Xrotation Yrotation Zrotation
					End Site
					{
						OFFSET 0.000000 22.523010 0.000000
					}
				}
				JOINT newVegas:Right_Peck
				{
					OFFSET -17.239599 -5.132202 25.482599
					CHANNELS 3 Xrotation Yrotation Zrotation
					End Site
					{
						OFFSET 0.000000 22.523010 0.000000
					}
				}
				JOINT newVegas:Right_Collar
				{
					OFFSET -18.625099 8.655792 8.828100
					CHANNELS 3 Xrotation Yrotation Zrotation
					JOINT newVegas:Right_Collar1
					{
						OFFSET -14.783401 10.539993 -1.259500
						CHANNELS 3 Xrotation Yrotation Zrotation
						End Site
						{
							OFFSET 0.000000 18.199631 0.000000
						}
					}
				}
			}
		}
		JOINT newVegas:Belly
		{
			OFFSET 0.000000 -6.540398 9.014299
			CHANNELS 3 Xrotation Yrotation Zrotation
			End Site
			{
				OFFSET 0.000000 11.566666 0.000000
			}
		}
	}
	JOINT newVegas:ElvisFacialAnim_Joint
	{
		OFFSET 1.000000 -95.330101 -8.825800
		CHANNELS 3 Xrotation Yrotation Zrotation
		End Site
		{
			OFFSET 0.000000 35.315800 0.000000
		}
	}
}
MOTION
Frames: 4
Frame Time: 0.033333
0.574538 10.211388 -2.154984 75.859018 7.932137 3.278578 -0.000000 -0.000000 -0.000000 -39.295888 30.172654 52.271404 64.147429 5.659421 -11.109251 -25.983465 16.704437 -2.785181 0.000000 -0.000000 0.000000 0.000001 0.000001 -0.000000 8.417319 0.183116 0.324103 -2.238738 -9.594067 -7.582371 39.450360 -5.817356 17.798025 -0.000000 0.000001 -0.000000 0.000000 -0.000000 -0.000000 0.041917 4.828078 -13.835147 1.748403 1.349906 -0.959028 1.735137 1.375659 -0.987553 -8.533652 0.955951 -3.513404 -8.533638 0.955959 -3.513411 -0.000003 -0.000001 -0.000001 -8.533651 0.955950 -3.513403 -8.533622 0.955941 -3.513407 -0.000000 0.000000 -0.000002 -0.000003 -0.000001 -0.000001 -55.880424 0.446294 6.655161 -44.637902 -40.979322 -86.955384 0.000037 -61.679395 0.000029 -140.196518 -12.688787 -29.057660 -27.087485 1.001146 11.738317 19.473184 -1.474893 7.636916 0.000001 -0.000000 0.000002 -1.882819 2.129419 -39.817018 5.828582 5.851017 -89.779428 0.000000 -0.000001 -0.000002 0.405912 5.507022 -52.453165 7.306674 5.667713 -104.429317 -0.000000 0.000000 -0.000001 -0.074381 5.736756 -61.061447 7.406180 5.641285 -105.438989 -0.000000 0.000001 -0.000000 2.216818 7.072485 -64.435438 4.422608 5.674595 -75.845767 0.000000 0.000000 -0.000002 -0.000001 -0.000002 0.000003 -0.000001 -0.000002 0.000003 -0.000002 -0.000003 0.000003 0.000000 -0.000001 -0.000002 0.000001 -0.000001 -0.000003 0.000000 -0.000001 -0.000002 -0.000001 -0.000001 -0.000003 0.580111 3.421225 -8.182953 -52.342175 15.892558 26.053381 0.000028 123.865535 -0.000026 39.102396 -9.676082 16.217369 -9.476498 -17.905910 25.099011 -34.172659 -6.074926 -29.934800 -0.000001 0.000003 -0.000002 -0.494168 9.886801 3.052963 4.494103 -4.654315 87.991148 -0.000001 0.000001 0.000001 -1.065179 -5.946086 79.423625 6.168672 -4.405564 108.957978 -0.000000 -0.000001 0.000000 -3.680517 -6.031669 83.530311 4.754005 -4.656148 91.192697 -0.000001 -0.000001 -0.000000 -3.541881 -7.108378 91.053252 2.431522 -4.091941 61.425428 0.000002 0.000002 -0.000003 0.000003 -0.000001 -0.000001 0.000002 -0.000001 -0.000001 0.000003 -0.000001 -0.000000 0.000002 0.000000 -0.000000 0.000003 0.000000 -0.000000 0.000002 0.000000 -0.000000 0.000003 -0.000000 -0.000000 -0.000001 0.000000 -0.000001 -0.000001 0.000000 -0.000001 -0.000001 0.000000 -0.000001 -0.000001 0.000000 -0.000001 -0.000001 0.000000 -0.000001 -0.000001 0.000000 -0.000001 -0.000001 0.000000 -0.000001 0.000000 0.000000 -0.000001 -0.000000 -0.000000 -0.000000 
1.759302 10.055443 -2.324516 75.165433 5.978370 1.812019 0.000001 0.000001 0.000000 -27.756948 28.509683 43.760851 55.443026 7.087817 -8.932884 -24.644723 20.899998 -2.855976 -0.000000 -0.000000 -0.000000 0.000001 -0.000003 0.000001 8.498179 -1.686752 -0.148296 -1.340680 -9.665143 -7.483867 40.135500 -5.824282 17.049180 -0.000004 0.000002 -0.000001 0.000001 -0.000000 -0.000000 -0.137926 4.474728 -11.568679 1.651318 1.559178 -0.918983 1.636406 1.579517 -0.954586 -8.501153 0.920688 -2.794775 -8.501159 0.920683 -2.794777 -0.000001 -0.000002 -0.000000 -8.501090 0.920684 -2.794778 -8.501129 0.920687 -2.794774 -0.000003 0.000000 -0.000000 -0.000001 -0.000002 -0.000000 -55.699441 0.360466 7.264648 -43.847277 -41.646635 -86.797805 0.000011 -66.865114 0.000013 -136.059008 -14.259178 -25.438034 -27.087487 1.001145 11.738322 19.473185 -1.474893 7.636914 0.000002 -0.000002 -0.000003 -1.882818 2.129417 -39.817025 5.828585 5.851017 -89.779428 0.000001 -0.000000 0.000002 0.405911 5.507023 -52.453165 7.306674 5.667713 -104.429317 -0.000000 -0.000000 -0.000001 -0.074385 5.736754 -61.061447 7.406179 5.641285 -105.438996 -0.000000 -0.000004 0.000000 2.216816 7.072484 -64.435438 4.422601 5.674596 -75.845774 0.000001 -0.000007 -0.000002 0.000001 0.000001 0.000001 0.000001 0.000001 0.000001 0.000000 0.000000 0.000001 -0.000002 0.000000 0.000001 -0.000001 0.000001 -0.000003 -0.000002 0.000000 0.000001 -0.000002 0.000001 -0.000000 0.501524 3.770138 -4.340839 -50.479521 13.583593 27.735387 -0.000001 127.954332 -0.000004 41.529039 -9.770506 15.500850 -9.476497 -17.905910 25.099011 -34.172652 -6.074926 -29.934796 0.000003 0.000003 -0.000002 -0.494167 9.886806 3.052964 4.494103 -4.654321 87.991148 -0.000000 0.000001 -0.000000 -1.065179 -5.946082 79.423625 6.168673 -4.405567 108.957978 -0.000000 -0.000003 -0.000001 -3.680518 -6.031664 83.530311 4.754007 -4.656147 91.192697 -0.000001 0.000002 -0.000000 -3.541881 -7.108378 91.053252 2.431518 -4.091943 61.425421 0.000001 0.000003 -0.000000 -0.000002 0.000002 0.000001 -0.000002 -0.000001 -0.000003 -0.000002 0.000001 0.000000 0.000001 0.000000 0.000002 0.000001 0.000000 0.000003 0.000001 0.000000 0.000002 0.000001 0.000000 0.000004 -0.000000 -0.000000 0.000000 -0.000000 -0.000000 0.000000 -0.000000 -0.000000 0.000000 -0.000000 -0.000000 0.000000 -0.000000 -0.000000 0.000000 -0.000000 -0.000000 0.000000 -0.000000 -0.000000 0.000000 -0.000001 -0.000001 0.000001 0.000001 0.000001 0.000000 
2.561895 9.813179 -2.469414 74.299221 3.845873 0.550303 -0.000000 -0.000000 -0.000000 -18.415083 27.080556 36.633201 48.051245 8.418591 -4.684171 -22.265047 23.430143 -3.765043 0.000000 -0.000001 -0.000000 0.000000 -0.000003 0.000000 8.591446 -3.049892 -0.802248 -0.604276 -9.239420 -7.502946 39.861343 -4.975698 15.417552 -0.000004 -0.000001 0.000000 -0.000000 -0.000001 -0.000000 -0.088926 3.990843 -9.449410 1.634826 1.839679 -0.998208 1.615525 1.853629 -1.043352 -8.387023 0.861228 -1.978337 -8.387074 0.861218 -1.978334 0.000001 -0.000001 0.000001 -8.387062 0.861216 -1.978333 -8.387010 0.861235 -1.978334 0.000000 -0.000001 0.000001 0.000001 -0.000001 -0.000000 -55.202675 -0.064035 8.022222 -45.065407 -42.934579 -86.906207 -0.000025 -70.599636 -0.000036 -131.963121 -15.038792 -21.244291 -27.087485 1.001147 11.738317 19.473192 -1.474894 7.636913 0.000004 0.000000 -0.000003 -1.882817 2.129419 -39.817025 5.828585 5.851016 -89.779428 0.000000 0.000001 -0.000005 0.405911 5.507022 -52.453165 7.306674 5.667714 -104.429317 -0.000001 0.000000 0.000000 -0.074381 5.736754 -61.061447 7.406179 5.641283 -105.438989 -0.000000 -0.000001 0.000000 2.216818 7.072486 -64.435445 4.422606 5.674598 -75.845767 0.000001 -0.000002 -0.000001 -0.000000 -0.000001 -0.000000 -0.000000 -0.000001 -0.000000 -0.000001 -0.000001 -0.000000 0.000001 -0.000002 -0.000000 0.000002 -0.000002 -0.000003 0.000001 -0.000002 -0.000000 0.000001 -0.000001 -0.000001 0.168652 4.620596 0.043698 -48.596239 10.283938 30.075621 -0.000002 131.676512 -0.000008 43.668876 -8.912196 14.382495 -9.476498 -17.905906 25.099014 -34.172656 -6.074922 -29.934796 0.000000 -0.000000 -0.000002 -0.494167 9.886809 3.052964 4.494103 -4.654313 87.991148 -0.000003 -0.000000 0.000000 -1.065177 -5.946082 79.423625 6.168671 -4.405566 108.957978 0.000000 0.000002 0.000003 -3.680518 -6.031659 83.530318 4.754006 -4.656148 91.192697 -0.000000 0.000002 -0.000001 -3.541882 -7.108379 91.053252 2.431521 -4.091945 61.425428 -0.000001 -0.000000 0.000001 0.000001 0.000001 -0.000000 -0.000000 0.000001 0.000001 0.000001 0.000001 -0.000001 -0.000001 0.000002 -0.000000 -0.000001 0.000003 0.000001 -0.000001 0.000002 -0.000000 -0.000000 0.000003 0.000001 0.000000 0.000000 -0.000000 0.000000 0.000000 -0.000000 0.000000 0.000000 -0.000000 0.000000 0.000000 -0.000000 0.000000 0.000000 -0.000000 0.000000 0.000000 -0.000000 0.000000 0.000000 -0.000000 -0.000001 -0.000000 -0.000000 -0.000000 -0.000000 -0.000000 
2.912200 9.499527 -2.733467 73.357359 1.682174 -0.456090 -0.000001 0.000000 -0.000000 -11.274297 26.436768 31.742771 42.267229 8.874489 -0.589824 -19.017070 23.754664 -5.667387 0.000000 0.000001 -0.000001 0.000000 -0.000004 0.000002 9.310615 -3.914040 -1.543110 -1.491231 -8.580036 -7.987624 39.642264 -3.483742 14.268882 0.000000 -0.000000 0.000001 0.000001 0.000000 0.000000 0.020609 3.405475 -7.510374 1.684087 2.066244 -1.215482 1.655695 2.074458 -1.268418 -8.166557 0.806316 -1.060794 -8.166545 0.806310 -1.060785 -0.000002 0.000000 0.000000 -8.166470 0.806321 -1.060793 -8.166640 0.806272 -1.060781 -0.000001 -0.000002 0.000000 -0.000002 0.000000 -0.000000 -54.346367 -0.760116 8.629714 -46.987190 -44.938448 -86.598268 -0.000012 -73.598143 -0.000033 -128.230122 -15.468744 -16.540071 -27.087487 1.001148 11.738319 19.473189 -1.474895 7.636914 0.000003 -0.000001 -0.000004 -1.882819 2.129419 -39.817018 5.828587 5.851014 -89.779428 0.000001 0.000002 -0.000004 0.405911 5.507024 -52.453165 7.306678 5.667711 -104.429310 -0.000001 0.000002 0.000000 -0.074381 5.736757 -61.061447 7.406181 5.641282 -105.438989 0.000000 -0.000002 0.000001 2.216816 7.072486 -64.435445 4.422608 5.674596 -75.845767 0.000000 -0.000003 -0.000000 0.000002 -0.000000 0.000002 0.000002 -0.000000 0.000002 0.000002 -0.000001 0.000002 0.000002 0.000001 -0.000001 0.000002 0.000001 -0.000002 0.000002 0.000001 -0.000001 0.000001 0.000003 -0.000001 -0.507238 5.696138 4.621740 -45.950166 6.466904 33.000581 0.000005 134.752980 0.000002 45.302825 -7.132699 12.523275 -9.476502 -17.905908 25.099012 -34.172656 -6.074920 -29.934800 0.000005 -0.000002 -0.000004 -0.494169 9.886805 3.052965 4.494102 -4.654319 87.991148 -0.000000 0.000001 -0.000000 -1.065178 -5.946076 79.423625 6.168673 -4.405566 108.957985 0.000001 -0.000000 0.000002 -3.680519 -6.031664 83.530318 4.754002 -4.656150 91.192697 -0.000001 0.000002 -0.000001 -3.541883 -7.108376 91.053245 2.431521 -4.091951 61.425428 0.000001 0.000003 0.000001 -0.000004 -0.000002 0.000000 -0.000002 0.000000 0.000003 -0.000004 -0.000002 -0.000000 -0.000000 -0.000001 -0.000002 -0.000000 0.000000 -0.000002 -0.000000 -0.000001 -0.000002 -0.000000 -0.000000 -0.000000 0.000000 0.000000 0.000000 0.000000 0.000000 0.000000 0.000000 0.000000 0.000000 0.000000 0.000000 0.000000 0.000000 0.000000 0.000000 0.000000 0.000000 0.000000 0.000000 0.000000 0.000000 -0.000001 -0.000000 -0.000001 -0.000001 0.000000 -0.000000 
